<mxfile host="app.diagrams.net" modified="2023-08-28T12:14:45.601Z" agent="Mozilla/5.0 (Windows NT 10.0; Win64; x64) AppleWebKit/537.36 (KHTML, like Gecko) Chrome/116.0.0.0 Safari/537.36 Edg/116.0.1938.62" version="21.6.9" etag="bE6wn3belD1RiRqFpSEs" type="github">
  <diagram name="第 1 页" id="9hehgVNOLOo1YO6w4ohl">
    <mxGraphModel>
      <root>
        <mxCell id="0" />
        <mxCell id="1" parent="0" />
      </root>
    </mxGraphModel>
  </diagram>
</mxfile>
